<svg width="24" height="24" viewBox="0 0 24 24" fill="none" xmlns="http://www.w3.org/2000/svg">
<path d="M12.0001 22C10.4881 22.0043 8.99527 21.6622 7.63605 21C7.13861 20.758 6.66199 20.4754 6.21105 20.155L6.07405 20.055C4.83389 19.1396 3.81995 17.9522 3.11005 16.584C2.37579 15.1679 1.99496 13.5952 2.00005 12C2.00005 6.477 6.47705 2 12.0001 2C17.5231 2 22 6.477 22 12C22.0051 13.5944 21.6246 15.1664 20.8911 16.582C20.1822 17.9494 19.1696 19.1364 17.9311 20.052C17.4641 20.394 16.9681 20.695 16.449 20.952L16.3691 20.992C15.009 21.6577 13.5143 22.0026 12.0001 22ZM12.0001 17C11.2651 16.9986 10.544 17.2002 9.91635 17.5825C9.28869 17.9649 8.77885 18.5132 8.44305 19.167C9.5488 19.7147 10.7661 19.9996 12.0001 19.9996C13.234 19.9996 14.4513 19.7147 15.5571 19.167V19.162C15.2208 18.5089 14.7108 17.9615 14.0831 17.58C13.4554 17.1985 12.7346 16.9978 12.0001 17ZM12.0001 15C13.0642 15.0012 14.109 15.2847 15.0278 15.8216C15.9466 16.3585 16.7065 17.1295 17.2301 18.056L17.2441 18.043L17.258 18.031L17.241 18.046L17.2311 18.054C18.466 16.9871 19.345 15.5681 19.7504 13.9873C20.1557 12.4065 20.0679 10.7396 19.4987 9.21011C18.9295 7.68065 17.9062 6.36185 16.566 5.43062C15.2259 4.4994 13.633 4.00032 12.0011 4.00032C10.3691 4.00032 8.77622 4.4994 7.43606 5.43062C6.0959 6.36185 5.07258 7.68065 4.5034 9.21011C3.93422 10.7396 3.84641 12.4065 4.25174 13.9873C4.65706 15.5681 5.53615 16.9871 6.77105 18.054C7.29489 17.1279 8.05494 16.3574 8.97371 15.8209C9.89249 15.2844 10.9371 15.0011 12.0011 15H12.0001ZM12.0001 14C10.9392 14 9.92177 13.5786 9.17162 12.8284C8.42148 12.0783 8.00005 11.0609 8.00005 10C8.00005 8.93913 8.42148 7.92172 9.17162 7.17157C9.92177 6.42143 10.9392 6 12.0001 6C13.0609 6 14.0783 6.42143 14.8285 7.17157C15.5786 7.92172 16.0001 8.93913 16.0001 10C16.0001 11.0609 15.5786 12.0783 14.8285 12.8284C14.0783 13.5786 13.0609 14 12.0001 14ZM12.0001 8C11.4696 8 10.9609 8.21071 10.5858 8.58579C10.2108 8.96086 10.0001 9.46957 10.0001 10C10.0001 10.5304 10.2108 11.0391 10.5858 11.4142C10.9609 11.7893 11.4696 12 12.0001 12C12.5305 12 13.0392 11.7893 13.4143 11.4142C13.7893 11.0391 14.0001 10.5304 14.0001 10C14.0001 9.46957 13.7893 8.96086 13.4143 8.58579C13.0392 8.21071 12.5305 8 12.0001 8Z" fill="white"/>
<path d="M12.0001 8C11.4696 8 10.9609 8.21071 10.5858 8.58579C10.2108 8.96086 10.0001 9.46957 10.0001 10C10.0001 10.5304 10.2108 11.0391 10.5858 11.4142C10.9609 11.7893 11.4696 12 12.0001 12C12.5305 12 13.0392 11.7893 13.4143 11.4142C13.7893 11.0391 14.0001 10.5304 14.0001 10C14.0001 9.46957 13.7893 8.96086 13.4143 8.58579C13.0392 8.21071 12.5305 8 12.0001 8Z" fill="white"/>
<path d="M12.0001 17C11.2651 16.9986 10.544 17.2002 9.91635 17.5825C9.28869 17.9649 8.77885 18.5132 8.44305 19.167C9.5488 19.7147 10.7661 19.9996 12.0001 19.9996C13.234 19.9996 14.4513 19.7147 15.5571 19.167V19.162C15.2208 18.5089 14.7108 17.9615 14.0831 17.58C13.4554 17.1985 12.7346 16.9978 12.0001 17Z" fill="white"/>
</svg>
