<svg width="38" height="38" viewBox="0 0 38 38" fill="none" xmlns="http://www.w3.org/2000/svg">
<path d="M30.0833 20.5834H11.305L17.0525 27.4867C17.1855 27.6469 17.2858 27.8316 17.3474 28.0304C17.4091 28.2293 17.431 28.4383 17.4119 28.6456C17.3733 29.0643 17.17 29.4505 16.8466 29.7192C16.5233 29.988 16.1064 30.1173 15.6877 30.0787C15.2691 30.0401 14.8829 29.8368 14.6141 29.5134L6.69746 20.0134C6.6442 19.9379 6.59657 19.8585 6.55496 19.7759C6.55496 19.6967 6.4758 19.6492 6.44413 19.5701C6.37236 19.3885 6.33479 19.1953 6.3333 19.0001C6.33479 18.8049 6.37236 18.6116 6.44413 18.4301C6.44413 18.3509 6.52329 18.3034 6.55496 18.2242C6.59657 18.1417 6.6442 18.0623 6.69746 17.9867L14.6141 8.48675C14.763 8.30802 14.9494 8.16429 15.1601 8.06577C15.3709 7.96725 15.6007 7.91637 15.8333 7.91675C16.2032 7.91603 16.5618 8.04487 16.8466 8.28092C17.007 8.41384 17.1395 8.57708 17.2366 8.7613C17.3338 8.94551 17.3936 9.14708 17.4127 9.35446C17.4318 9.56184 17.4099 9.77096 17.348 9.96983C17.2862 10.1687 17.1858 10.3534 17.0525 10.5134L11.305 17.4167H30.0833C30.5032 17.4167 30.9059 17.5836 31.2029 17.8805C31.4998 18.1774 31.6666 18.5802 31.6666 19.0001C31.6666 19.42 31.4998 19.8227 31.2029 20.1197C30.9059 20.4166 30.5032 20.5834 30.0833 20.5834Z" fill="#121212" fill-opacity="0.28"/>
</svg>
