<svg width="24" height="24" viewBox="0 0 24 24" fill="none" xmlns="http://www.w3.org/2000/svg">
<path d="M10.5 18C10.3011 18 10.1103 18.079 9.96967 18.2197C9.82902 18.3603 9.75 18.5511 9.75 18.75C9.75 18.9489 9.82902 19.1397 9.96967 19.2803C10.1103 19.421 10.3011 19.5 10.5 19.5H13.5C13.6989 19.5 13.8897 19.421 14.0303 19.2803C14.171 19.1397 14.25 18.9489 14.25 18.75C14.25 18.5511 14.171 18.3603 14.0303 18.2197C13.8897 18.079 13.6989 18 13.5 18H10.5ZM8.625 1.5C7.92881 1.5 7.26113 1.77656 6.76884 2.26884C6.27656 2.76113 6 3.42881 6 4.125V19.875C6 21.324 7.176 22.5 8.625 22.5H15.375C16.0712 22.5 16.7389 22.2234 17.2312 21.7312C17.7234 21.2389 18 20.5712 18 19.875V4.125C18 3.42881 17.7234 2.76113 17.2312 2.26884C16.7389 1.77656 16.0712 1.5 15.375 1.5H8.625ZM7.5 4.125C7.5 3.82663 7.61853 3.54048 7.8295 3.3295C8.04048 3.11853 8.32663 3 8.625 3H15.375C15.6734 3 15.9595 3.11853 16.1705 3.3295C16.3815 3.54048 16.5 3.82663 16.5 4.125V19.875C16.5 20.1734 16.3815 20.4595 16.1705 20.6705C15.9595 20.8815 15.6734 21 15.375 21H8.625C8.32663 21 8.04048 20.8815 7.8295 20.6705C7.61853 20.4595 7.5 20.1734 7.5 19.875V4.125Z" fill="white"/>
</svg>
