<svg width="89" height="25" viewBox="0 0 89 25" fill="none" xmlns="http://www.w3.org/2000/svg">
<path d="M8.792 24.384C7.192 24.384 5.77333 24.0427 4.536 23.36C3.29867 22.6773 2.328 21.7173 1.624 20.48C0.92 19.2427 0.568 17.8133 0.568 16.192C0.568 14.5493 0.909333 13.088 1.592 11.808C2.296 10.528 3.256 9.536 4.472 8.832C5.70933 8.10667 7.16 7.744 8.824 7.744C10.3813 7.744 11.7573 8.08533 12.952 8.768C14.1467 9.45067 15.0747 10.3893 15.736 11.584C16.4187 12.7573 16.76 14.0693 16.76 15.52C16.76 15.7547 16.7493 16 16.728 16.256C16.728 16.512 16.7173 16.7787 16.696 17.056H4.632C4.71733 18.2933 5.144 19.264 5.912 19.968C6.70133 20.672 7.65067 21.024 8.76 21.024C9.592 21.024 10.2853 20.8427 10.84 20.48C11.416 20.096 11.8427 19.6053 12.12 19.008H16.28C15.9813 20.0107 15.48 20.928 14.776 21.76C14.0933 22.5707 13.24 23.2107 12.216 23.68C11.2133 24.1493 10.072 24.384 8.792 24.384ZM8.824 11.072C7.82133 11.072 6.936 11.36 6.168 11.936C5.4 12.4907 4.90933 13.344 4.696 14.496H12.6C12.536 13.4507 12.152 12.6187 11.448 12C10.744 11.3813 9.86933 11.072 8.824 11.072Z" fill="white"/>
<path d="M20.205 24V0.959999H24.301V24H20.205ZM34.4383 24.384C32.4543 24.384 30.9183 23.7653 29.8303 22.528C28.7636 21.2907 28.2303 19.4773 28.2303 17.088V8.128H32.2943V16.704C32.2943 18.0693 32.5716 19.1147 33.1263 19.84C33.6809 20.5653 34.5556 20.928 35.7503 20.928C36.8809 20.928 37.8089 20.5227 38.5343 19.712C39.2809 18.9013 39.6543 17.7707 39.6543 16.32V8.128H43.7503V24H40.1343L39.8143 21.312C39.3236 22.2507 38.6089 22.9973 37.6703 23.552C36.7529 24.1067 35.6756 24.384 34.4383 24.384ZM51.059 24L46.419 8.128H50.483L53.235 19.552L56.435 8.128H60.979L64.179 19.552L66.963 8.128H71.027L66.355 24H62.099L58.707 12.128L55.315 24H51.059ZM80.7608 24.384C79.1608 24.384 77.7421 24.0427 76.5048 23.36C75.2674 22.6773 74.2968 21.7173 73.5928 20.48C72.8888 19.2427 72.5368 17.8133 72.5368 16.192C72.5368 14.5493 72.8781 13.088 73.5608 11.808C74.2648 10.528 75.2248 9.536 76.4408 8.832C77.6781 8.10667 79.1288 7.744 80.7928 7.744C82.3501 7.744 83.7261 8.08533 84.9208 8.768C86.1154 9.45067 87.0434 10.3893 87.7048 11.584C88.3874 12.7573 88.7288 14.0693 88.7288 15.52C88.7288 15.7547 88.7181 16 88.6968 16.256C88.6968 16.512 88.6861 16.7787 88.6648 17.056H76.6008C76.6861 18.2933 77.1128 19.264 77.8808 19.968C78.6701 20.672 79.6194 21.024 80.7288 21.024C81.5608 21.024 82.2541 20.8427 82.8088 20.48C83.3848 20.096 83.8114 19.6053 84.0888 19.008H88.2488C87.9501 20.0107 87.4488 20.928 86.7448 21.76C86.0621 22.5707 85.2088 23.2107 84.1848 23.68C83.1821 24.1493 82.0408 24.384 80.7608 24.384ZM80.7928 11.072C79.7901 11.072 78.9048 11.36 78.1368 11.936C77.3688 12.4907 76.8781 13.344 76.6648 14.496H84.5688C84.5048 13.4507 84.1208 12.6187 83.4168 12C82.7128 11.3813 81.8381 11.072 80.7928 11.072Z" fill="#FF7352"/>
</svg>
